<?xml version="1.0" encoding="utf-8"?>
<!-- Generator: Adobe Illustrator 24.1.2, SVG Export Plug-In . SVG Version: 6.00 Build 0)  -->
<svg version="1.1" id="Layer_3" xmlns="http://www.w3.org/2000/svg" xmlns:xlink="http://www.w3.org/1999/xlink" x="0px" y="0px"
	 viewBox="0 0 595.28 595.28" style="enable-background:new 0 0 595.28 595.28;" xml:space="preserve">
<style type="text/css">
	.st0{stroke:#000000;stroke-width:6;stroke-linecap:round;stroke-linejoin:round;stroke-miterlimit:10;}
</style>
<g>
	<polygon class="st0" points="192.69,269.25 184.96,295.73 181.61,307.23 178.29,318.61 170.26,346.1 166.43,359.23 166.41,359.25 
		166.43,359.25 160.61,379.18 146.43,379.11 137.23,379.08 146.88,345.97 158.23,307.09 161.59,295.6 169.31,269.12 	"/>
	<polygon class="st0" points="223.4,307.12 210.3,320.14 220.92,346.05 226.33,359.25 234.5,379.18 205.8,379.05 197.62,359.09 
		192.21,345.89 189.95,340.37 185.41,329.32 191.78,307.51 192.34,306.94 203.86,295.5 230.4,269.13 261.45,269.31 234.91,295.68 	
		"/>
	<polygon class="st0" points="301.66,270.37 293.94,296.85 290.58,308.33 279.24,347.22 275.41,360.36 269.62,380.18 243.78,380.06 
		249.57,360.22 253.4,347.07 264.75,308.2 264.75,308.19 268.09,296.7 268.1,296.7 275.83,270.23 	"/>
	<polygon class="st0" points="333.7,359.94 313.9,379.63 278.98,379.48 284.76,359.67 	"/>
	<path class="st0" d="M429.23,270.23c11.9,0.07,20.42,11.5,17.09,22.92l-1.08,3.69l-3.35,11.48l-5.15,17.63l-2.42,8.28
		c-2.24,7.67-9.3,12.93-17.29,12.89l-10.23-0.06l-39.15-0.22l0,0.01l-3.84,13.14l-5.75,19.72l-23.08-0.11l5.76-19.74l3.84-13.14
		l6.19-21.25l5.15-17.63l23.07,0.13l-5.14,17.63l39.15,0.22l5.15-17.63l3.35-11.48l-39.15-0.22l-23.07-0.13l7.72-26.48l23.07,0.13
		l39.15,0.22L429.23,270.23L429.23,270.23z"/>
	<polygon class="st0" points="510.13,270.43 502.41,296.91 479.22,296.78 458.93,296.67 485.47,270.3 486.94,270.3 	"/>
	<polygon class="st0" points="498.83,308.26 487.49,347.15 483.65,360.29 477.94,379.87 454.74,379.76 460.46,360.17 464.3,347.02 
		475.65,308.13 	"/>
</g>
</svg>
